<?xml version="1.0" encoding="utf-8"?>
<!-- Generator: Adobe Illustrator 24.2.3, SVG Export Plug-In . SVG Version: 6.00 Build 0)  -->
<svg version="1.1" id="Слой_1" xmlns="http://www.w3.org/2000/svg" xmlns:xlink="http://www.w3.org/1999/xlink" x="0px" y="0px"
	 width="202.55px" height="198.13px" viewBox="0 0 202.55 198.13" style="enable-background:new 0 0 202.55 198.13;"
	 xml:space="preserve">
<style type="text/css">
	.st0{fill:#1D71B8;stroke:#1D71B8;stroke-miterlimit:10;}
	.st1{fill:none;stroke:#1D71B8;stroke-miterlimit:10;}
	.st2{fill:#1D71B8;}
</style>
<path class="st0" d="M122.98-17c0,0-21.7,11.4-21.7,31.57s21.7,28.6,21.7,28.6"/>
<path class="st1" d="M122.98,103.34c0,0,21.7-11.4,21.7-31.57s-21.7-28.6-21.7-28.6"/>
<path class="st0" d="M122.98,103.34c0,0-21.7,11.4-21.7,31.57c0,20.17,21.7,28.6,21.7,28.6"/>
<path class="st1" d="M122.98,223.68c0,0,21.7-11.4,21.7-31.57s-21.7-28.6-21.7-28.6"/>
<g>
	<g>
		<path class="st2" d="M155.39,16.41c-0.86,3.3-1.73,6.6-2.59,9.9c1.22-0.5,2.45-1,3.67-1.49c-2.09-1.28-2.93-4.25-4.22-6.22
			c-0.84-1.28-1.78-2.51-2.8-3.64c-1.04-1.15-2.26-2.61-3.82-2.99c-3.46-0.85-5.44,3.72-6.78,6.11c-1.63,2.93-3,6-4.16,9.14
			c1.52-0.2,3.05-0.4,4.57-0.6c-1.74-3.4-2.88-7.12-3.27-10.92c-0.14-1.34-1.05-2.5-2.5-2.5c-1.32,0-2.55,1.14-2.5,2.5
			c0.25,7.05,1.12,14.06,2.58,20.96c0.28,1.32,1.83,2.09,3.08,1.75c1.4-0.38,1.99-1.74,1.75-3.08c-1.1-6.02-2.62-11.94-4.55-17.74
			c-0.93-2.78-4.62-2.11-4.91,0.66c-0.3,2.87-1.49,5.72-3.32,7.96c1.18,0,2.36,0,3.54,0c-2.69-3.22-4.42-7.3-4.85-11.47
			c-0.14-1.34-1.05-2.5-2.5-2.5c-1.31,0-2.56,1.14-2.5,2.5c0.16,3.8,0.69,7.57,1.61,11.26c0.68,2.73,4.96,2.16,4.91-0.66
			c-0.05-3.12,0.04-6.23,0.28-9.34c-1.64,0.22-3.27,0.44-4.91,0.66c0.75,2.68,1.51,5.35,2.26,8.03c0.77,2.73,4.85,2.16,4.91-0.66
			c0.07-3.23-0.71-6.34-2.2-9.2c-0.94-1.8-3.29-1.43-4.32,0c-0.6,0.84-1.2,1.67-1.8,2.51c-0.28,0.39-0.55,0.77-0.83,1.16
			c-0.14,0.19-0.28,0.39-0.42,0.58c-0.15,0.03-0.07-0.05,0.24-0.25c0.44,0,0.89,0,1.33,0c0.26,0.22,0.28,0.23,0.07,0.04
			c-0.14-0.13-0.28-0.27-0.4-0.42c-0.15-0.19-0.28-0.39-0.4-0.6c-0.33-0.56-0.5-1.12-0.64-1.75c-1.52,0.64-3.05,1.28-4.57,1.93
			c1.44,2.93,2.88,5.85,4.33,8.78c0.6,1.21,2.31,1.54,3.42,0.9c1.23-0.72,1.5-2.21,0.9-3.42c-1.44-2.93-2.88-5.85-4.33-8.78
			c-1.3-2.64-5.15-0.73-4.57,1.93c0.54,2.48,2.56,6.31,5.53,6.31c1.64,0,2.66-1.11,3.55-2.33c0.98-1.34,1.94-2.7,2.91-4.06
			c-1.44,0-2.88,0-4.32,0c1.09,2.09,1.57,4.33,1.52,6.68c1.64-0.22,3.27-0.44,4.91-0.66c-0.75-2.68-1.51-5.35-2.26-8.03
			c-0.79-2.82-4.7-2.08-4.91,0.66c-0.24,3.11-0.34,6.22-0.28,9.34c1.64-0.22,3.27-0.44,4.91-0.66c-0.81-3.27-1.29-6.57-1.43-9.93
			c-1.67,0-3.33,0-5,0c0.57,5.6,2.7,10.69,6.31,15.01c0.81,0.97,2.74,0.98,3.54,0c2.74-3.36,4.33-7.19,4.78-11.5
			c-1.64,0.22-3.27,0.44-4.91,0.66c1.94,5.8,3.46,11.73,4.55,17.74c1.61-0.44,3.21-0.89,4.82-1.33c-1.37-6.47-2.16-13.02-2.4-19.63
			c-1.67,0-3.33,0-5,0c0.49,4.73,1.79,9.21,3.96,13.45c1.06,2.07,3.88,1.27,4.57-0.6c0.91-2.46,1.98-4.85,3.23-7.16
			c0.64-1.18,1.31-2.34,2.03-3.48c0.16-0.25,0.32-0.5,0.48-0.75c0.34-0.52,0.51-0.44-0.4-0.44c-1.03,0-0.67,0.02-0.24,0.43
			c0.25,0.24,0.5,0.49,0.74,0.74c1.62,1.7,2.89,3.6,4,5.67c1.17,2.19,2.43,4.26,4.6,5.6c1.37,0.84,3.27,0.04,3.67-1.49
			c0.86-3.3,1.73-6.6,2.59-9.9C161.03,14.62,156.21,13.29,155.39,16.41L155.39,16.41z"/>
	</g>
</g>
<g>
	<g>
		<path class="st2" d="M166.45,9.17c-1-0.76-2-1.51-3-2.27c-4.92-3.72-10.58,2.4-9.55,7.34c0.54,2.58,2.52,9.08,0.8,11.6
			c1.87-1.07,3.74-2.15,5.61-3.22c2.55,0.06,1.95,0.38,0.34-1.64c-0.89-1.11-1.7-2.27-2.46-3.47c-1.52-2.39-2.84-4.9-3.87-7.53
			c-2.1-5.31-11.2-6.98-12.54,0c-1.02,5.32-1.94,10.64-1.98,16.06c-0.06,8.4,12.61,8.32,13,0c0.26-5.58,0.53-11.15,0.79-16.73
			c-4.33,0-8.67,0-13,0c-0.17,3.77-0.8,7.29-1.85,10.92c3.96-0.52,7.92-1.04,11.88-1.55c-2.79-4.54-5.58-9.08-8.37-13.63
			c-2.34-3.8-9.12-4.65-11.23,0c-1.79,3.95-3.69,7.83-5.69,11.68c3.4-0.44,6.81-0.88,10.21-1.32c-0.84-0.77-1.5-4.93-1.89-6.14
			c-2.14-6.67-13.26-5.91-12.77,1.73c0.18,2.77,0.36,5.54,0.53,8.31c4.26-0.58,8.51-1.15,12.77-1.73
			c-0.93-4.74-0.91-9.61-2.24-14.27c-2.29-8.03-14.84-4.62-12.54,3.46c1.31,4.61,1.31,9.55,2.24,14.27
			c1.41,7.14,13.24,5.59,12.77-1.73c-0.18-2.77-0.36-5.54-0.53-8.31c-4.26,0.58-8.51,1.15-12.77,1.73c1.25,3.91,2.08,9,5.23,11.88
			c2.94,2.69,8.19,2.56,10.21-1.32c2.01-3.84,3.9-7.73,5.69-11.68c-3.74,0-7.48,0-11.23,0c2.79,4.54,5.58,9.08,8.37,13.63
			c2.93,4.77,10.31,3.88,11.88-1.55c1.36-4.71,2.1-9.48,2.32-14.37c0.38-8.37-12.61-8.34-13,0c-0.26,5.58-0.53,11.15-0.79,16.73
			c4.33,0,8.67,0,13,0c0.03-4.31,0.71-8.39,1.51-12.61c-4.18,0-8.36,0-12.54,0c1.88,4.77,4.07,9.28,7.1,13.43
			c2.67,3.65,5.94,8.5,10.93,8.74c11.52,0.56,7.95-18.47,6.62-24.83c-3.18,2.45-6.37,4.89-9.55,7.34c1,0.76,2,1.51,3,2.27
			C166.56,25.44,173.05,14.16,166.45,9.17L166.45,9.17z"/>
	</g>
</g>
<g>
	<g>
		<path class="st2" d="M124.46,12.3c10.94,1.7,21.92,3.25,32.73,5.64c0.58-4.26,1.15-8.51,1.73-12.77
			c-5.24,0.21-10.39-0.32-15.58-1.04c-2.55-0.36-5.1-0.73-7.63-1.22c-1.26-0.24-2.52-0.51-3.78-0.8c-2.43-0.93-2.52-0.59-0.25,1.03
			c-0.78,2.96-1.55,5.93-2.33,8.89c3.48-1.59,8.71-1.05,12.45-1.24c-0.58-4.26-1.15-8.51-1.73-12.77c-1.95,0.76-3.38,1.51-4.91,2.97
			c-2.83,2.7-2.46,8.42,1.32,10.21c9.49,4.48,20.36,3.04,30.56,3.79c-0.58-4.26-1.15-8.51-1.73-12.77
			c-6.85,2.47-15.4,1.67-22.55,1.22c0,4.33,0,8.67,0,13c2.2-0.03,4.4-0.07,6.6-0.1c8.36-0.13,8.38-13.13,0-13
			c-2.2,0.03-4.4,0.07-6.6,0.1c-8.43,0.13-8.3,12.48,0,13c8.23,0.52,18.12,1.16,26.01-1.68c6.94-2.5,5.72-12.22-1.73-12.77
			c-7.38-0.54-17.15,1.22-23.99-2.01c0.44,3.4,0.88,6.81,1.32,10.21c-0.28,0.12-0.55,0.25-0.83,0.37
			c6.33-2.46,6.17-13.17-1.73-12.77c-6.57,0.33-12.94,0.23-19.01,3.01c-2.96,1.35-4.28,6.28-2.33,8.89
			c3.87,5.19,10.53,5.63,16.56,6.55c7.24,1.11,14.56,2.22,21.9,1.92c7.04-0.28,9.18-11.12,1.73-12.77
			c-10.82-2.39-21.79-3.94-32.73-5.64c-3.5-0.54-6.95,0.89-8,4.54C119.04,7.38,121,11.76,124.46,12.3L124.46,12.3z"/>
	</g>
</g>
<g>
	<g>
		<path class="st2" d="M143.47,10.17c6.41,1.8,13.31,1.83,19.92,2.15c7.3,0.35,14.6,0.64,21.89,0.96c8.36,0.36,8.35-12.64,0-13
			c-6.7-0.29-13.41-0.57-20.11-0.87c-6.03-0.28-12.4-0.12-18.24-1.77C138.86-4.63,135.41,7.91,143.47,10.17L143.47,10.17z"/>
	</g>
</g>
<g>
	<g>
		<path class="st2" d="M146.76,14.22c-1.57,2.64-3.08,5.45-5.34,7.57c-1.12,1.05-5.67,4.07-7.31,3.3c1.07,1.87,2.15,3.74,3.22,5.61
			c-0.37,0.9-0.74,1.81-1.11,2.71c5.31-3.93,3.34-11.43-3.28-12.11c-0.84-0.41-1.63-0.9-2.38-1.46c-5.07-3.43-10.56,2.21-9.55,7.34
			c0.45,2.29,1.28,4.27,2.53,6.24c2.45-3.18,4.89-6.37,7.34-9.55c-0.48-0.15-0.96-0.3-1.45-0.45c-3.69-1.16-8.71,2.09-8.23,6.27
			c0.11,1.05,0.24,2.1,0.39,3.14c0.71,2.63,1.19,1.82,1.43-2.44c-3.35,2.72-1.96,8.23,1.32,10.21c7.11,4.3,17.84,0.98,25.25-1.13
			c8.85-2.52,17.3-6.34,25.38-10.71c-3.18-1.29-6.37-2.59-9.55-3.88c2.65,7.71,5.79,15.22,9.42,22.51
			c1.91,3.83,7.38,4.07,10.21,1.32c4.26-4.14,1.46-10.95,0.55-15.97c-1.2-6.64-2.41-13.28-3.61-19.92
			c-4.18,1.15-8.36,2.3-12.54,3.46c1.95,7.43,2.41,14.9,2.49,22.56c4.26-0.58,8.51-1.15,12.77-1.73
			c-2.55-6.7-6.73-12.09-11.12-17.68c-4.41-5.61-9.05-10.95-14.62-15.44c-4.55-3.67-13.19-0.45-10.86,6.32
			c2.93,8.53,6.46,18.3,12.8,24.92c2.94,3.07,8.09,2.2,10.21-1.32c1.51-2.51,2.1-4.81,2.19-7.7c0.26-8.37-12.74-8.36-13,0
			c-0.14,0.38-0.28,0.76-0.41,1.14c3.4-0.44,6.81-0.88,10.21-1.32c-4.67-4.88-7.3-12.9-9.46-19.19c-3.62,2.11-7.24,4.22-10.86,6.32
			c4.63,3.74,8.65,8.04,12.4,12.65c3.65,4.49,7.92,9.26,10,14.73c2.47,6.5,12.85,6.07,12.77-1.73c-0.09-8.77-0.71-17.5-2.95-26.01
			c-2.16-8.2-14.01-4.66-12.54,3.46c0.86,4.74,1.72,9.48,2.58,14.23c0.75,4.15,2.42,8.99,2.33,13.21c0.63-1.53,1.27-3.06,1.9-4.6
			c-0.14,0.13-0.27,0.27-0.41,0.4c3.4,0.44,6.81,0.88,10.21,1.32c-3.14-6.31-5.82-12.75-8.11-19.41c-1.39-4.04-5.69-5.97-9.55-3.88
			c-6.08,3.29-12.29,6.21-18.87,8.35c-3.1,1.01-6.26,1.87-9.46,2.55c-2.1,0.44-7.18,2.16-9.19,0.94c0.44,3.4,0.88,6.81,1.32,10.21
			c3.56-2.9,2.41-6.12,1.98-9.9c-2.74,2.09-5.49,4.18-8.23,6.27c0.48,0.15,0.96,0.3,1.45,0.45c5.33,1.67,10.36-4.81,7.34-9.55
			c-0.78-0.9-1.19-1.95-1.22-3.14c-3.18,2.45-6.37,4.89-9.55,7.34c2.87,1.95,5.49,2.88,8.94,3.24c-1.09-4.04-2.19-8.08-3.28-12.11
			c-3.13,2.32-5.08,4.49-5.33,8.51c-0.13,2.09,1.29,4.7,3.22,5.61c13.03,6.14,24.42-5.4,30.44-15.54
			C162.27,13.57,151.03,7.03,146.76,14.22L146.76,14.22z"/>
	</g>
</g>
<g>
	<g>
		<path class="st2" d="M181.62,18.52c-2.4,11.26-4.68,22.65-3.84,34.22c0.61,8.33,12.49,8.4,13,0c0.88-14.5-0.29-28.95-3.3-43.16
			c-1.77-8.34-13.71-4.61-12.54,3.46c0.9,6.19,3,12.15,4.47,18.21c1.55,6.36,2.79,12.77,3.78,19.24c1.14,7.44,12.62,5.34,12.77-1.73
			c0.26-12.2,1.38-24.31,3.47-36.33c-4.18,0-8.36,0-12.54,0c2.03,9.56,0.63,20.16,0.05,29.85c4.33,0,8.67,0,13,0
			c-1.21-11.77-4.04-23.15-7.11-34.56c-1.9-7.07-12.78-5.64-12.77,1.73c0.01,7.82,0.71,15.54,1.9,23.26c1,6.48,11.12,5.91,12.54,0
			c2.64-11.04,2.7-22.13,0.21-33.2c-1.64-7.32-12.59-5.44-12.77,1.73c-0.2,7.98,0.59,15.88,2.23,23.69
			c1.49,7.12,13.21,5.61,12.77-1.73c-0.45-7.54-3.28-14.09-6.59-20.77C187-4.36,176.8,0.49,178.48,7.44
			c0.87,3.62,1.93,7.15,3.19,10.65c1.64,4.58,7.15,6.43,10.86,2.87c2.67-2.57,3.27-5.86,4.24-9.34c0.49-1.76,0.98-3.51,1.46-5.27
			c0.24-0.88,0.49-1.76,0.73-2.63c0.4-1.02,0.25-1.01-0.46,0.01c-3.18-1.29-6.37-2.59-9.55-3.88c1.75,8.51,2.89,17.53,5.85,25.73
			c2,5.54,11.12,6.79,12.54,0c0.95-4.54,1.3-8.99,0.75-13.6c-0.99-8.28-12.13-8.42-13,0c-1.1,10.66-3.62,21.07-7.2,31.17
			c4.26,0.58,8.51,1.15,12.77,1.73c-0.56-5.44,0.38-10.9,1.02-16.3c0.41-3.45,0.19-11.2,2.94-13.81c-1.53,0.63-3.06,1.27-4.6,1.9
			c0.19-0.01,0.38-0.01,0.57-0.02c-2.09-1.59-4.18-3.18-6.27-4.77c0.9,2.29,0.29,6.03,0.21,8.41c-0.1,3.14-0.36,6.29-0.71,9.41
			c-0.72,6.33-1.91,12.6-3.06,18.86c-1.5,8.15,10.89,11.7,12.54,3.46c2.68-13.42,2.6-27.15,4.79-40.63
			c-4.26-0.58-8.51-1.15-12.77-1.73c-1.65,21.13-7.95,41.56-9.99,62.66c-0.7,7.23,11.47,8.94,12.77,1.73
			c4.11-22.85,9.48-45.43,16.08-67.69c-4.18-1.15-8.36-2.3-12.54-3.46c-2.16,13.64-5.95,26.88-10.62,39.86c4.18,0,8.36,0,12.54,0
			c-1.42-9.84-2.65-19.71-3.7-29.6c-0.87-8.13-13.28-8.53-13,0c0.33,10.14,0.67,20.28,1,30.42c0.18,5.39,7.13,8.89,11.1,4.6
			c4.48-4.84,4.93-13.64,6.45-19.85c1.85-7.57,3.7-15.14,5.55-22.72c1.99-8.12-10.48-11.58-12.54-3.46
			c-2.5,9.87-6.59,19.09-10.85,28.3c3.96,1.67,7.92,3.34,11.88,5.01c1.87-8.27,3.73-16.54,5.6-24.8
			c1.84-8.15-10.69-11.63-12.54-3.46c-1.87,8.27-3.73,16.54-5.6,24.8c-1.54,6.8,8.64,12.02,11.88,5.01
			c4.72-10.21,9.4-20.47,12.16-31.41c-4.18-1.15-8.36-2.3-12.54-3.46c-1.62,6.63-3.24,13.25-4.86,19.88
			c-0.77,3.16-1.54,6.31-2.31,9.47c-0.39,1.58-0.77,3.16-1.16,4.73c-0.28,1.13-2.27,4.86-0.33,2.76c3.7,1.53,7.4,3.06,11.1,4.6
			c-0.33-10.14-0.67-20.28-1-30.42c-4.33,0-8.67,0-13,0c1.18,11.05,2.58,22.06,4.17,33.06c1.01,6.97,10.62,5.32,12.54,0
			c4.68-12.98,8.46-26.22,10.62-39.86c1.28-8.08-10.1-11.67-12.54-3.46c-6.61,22.25-11.97,44.84-16.08,67.69
			c4.26,0.58,8.51,1.15,12.77,1.73c2.04-21.09,8.33-41.5,9.99-62.66c0.56-7.22-11.59-8.99-12.77-1.73
			c-2.19,13.48-2.12,27.24-4.79,40.63c4.18,1.15,8.36,2.3,12.54,3.46c1.36-7.41,2.68-14.82,3.53-22.31
			c0.69-6.13,2.37-15.37,0.04-21.28c-1.03-2.62-3.21-4.88-6.27-4.77c-7.6,0.28-9.77,9.37-10.69,15.5
			c-1.24,8.28-3.1,17.36-2.24,25.73c0.74,7.25,10.23,8.88,12.77,1.73c3.99-11.23,6.44-22.77,7.67-34.62c-4.33,0-8.67,0-13,0
			c0.41,3.45,0.43,6.74-0.28,10.15c4.18,0,8.36,0,12.54,0c-2.96-8.19-4.1-17.21-5.85-25.73c-0.82-4-6.19-6.09-9.55-3.88
			c-3.3,2.17-4.69,4.93-5.76,8.64c-0.59,2.04-1.14,4.1-1.71,6.14c-0.33,1.17-0.65,2.34-0.98,3.51c-0.63,2-0.69,2.33-0.17,0.97
			c3.62,0.96,7.24,1.91,10.86,2.87c-1.26-3.5-2.31-7.03-3.19-10.65c-3.96,1.67-7.92,3.34-11.88,5.01c2.23,4.51,4.51,9.11,4.81,14.21
			c4.26-0.58,8.51-1.15,12.77-1.73c-1.4-6.71-1.93-13.39-1.76-20.23c-4.26,0.58-8.51,1.15-12.77,1.73
			c1.97,8.77,1.88,17.55-0.21,26.29c4.18,0,8.36,0,12.54,0c-1.01-6.57-1.42-13.17-1.44-19.81c-4.26,0.58-8.51,1.15-12.77,1.73
			c2.76,10.24,5.56,20.53,6.65,31.1c0.85,8.23,12.5,8.49,13,0c0.65-11,1.79-22.43-0.52-33.3c-1.29-6.07-11.43-6.33-12.54,0
			c-2.29,13.16-3.65,26.43-3.93,39.78c4.26-0.58,8.51-1.15,12.77-1.73c-0.99-6.47-2.23-12.88-3.78-19.24
			c-1.48-6.07-3.57-12.02-4.47-18.21c-4.18,1.15-8.36,2.3-12.54,3.46c2.77,13.1,3.65,26.35,2.84,39.71c4.33,0,8.67,0,13,0
			c-0.76-10.48,1.2-20.56,3.38-30.76C195.9,13.82,183.37,10.33,181.62,18.52L181.62,18.52z"/>
	</g>
</g>
<g>
	<g>
		<path class="st2" d="M177.96,49.7c-1.33,13.21-2.83,26.4-4.5,39.57c4.26-0.58,8.51-1.15,12.77-1.73
			c-2.74-18.4-4.61-36.91-6.47-55.42c-0.82-8.15-13.12-8.53-13,0c0.25,18.17-1.96,36.11-5.63,53.88c4.26,0.58,8.51,1.15,12.77,1.73
			c0.03-17.75,0.06-35.51,0.08-53.26c-4.26,0.58-8.51,1.15-12.77,1.73c4.06,21.13,4.86,42.79,10.33,63.65
			c1.98,7.56,12.01,5.18,12.77-1.73c2.09-19.2-5.39-37.34-7.01-56.24c-0.71-8.27-13.72-8.35-13,0c1.62,18.83,9.09,37.18,7.01,56.24
			c4.26-0.58,8.51-1.15,12.77-1.73c-5.47-20.87-6.27-42.53-10.33-63.65c-1.41-7.32-12.76-5.45-12.77,1.73
			c-0.03,17.75-0.06,35.51-0.08,53.26c-0.01,7.14,11.25,9.07,12.77,1.73c3.9-18.87,6.37-38.04,6.1-57.34c-4.33,0-8.67,0-13,0
			c1.98,19.67,4.02,39.32,6.94,58.88c0.47,3.18,4.27,5.04,7.13,4.66c3.45-0.47,5.22-3.12,5.64-6.38c1.66-13.17,3.16-26.36,4.5-39.57
			C191.8,41.38,178.8,41.44,177.96,49.7L177.96,49.7z"/>
	</g>
</g>
<g>
	<g>
		<path class="st2" d="M177.52,45.64c-0.32,10.56-0.65,21.12-0.97,31.68c-0.32,10.28-1.46,20.87,0.38,31.05
			c1.41,7.78,12.04,4.96,12.77-1.73c1.74-15.97,3.12-32.03,7.76-47.49c-4.26-0.58-8.51-1.15-12.77-1.73
			c0.7,6.87,1.17,13.75,1.35,20.65c0.18,6.88-0.15,13.7,1.34,20.47c1.52,6.89,10.38,5.41,12.54,0
			c5.62-14.08,10.34-28.47,14.15-43.14c-4.26-0.58-8.51-1.15-12.77-1.73c-0.5,14.17-4.32,27.79-8.17,41.36c4.18,0,8.36,0,12.54,0
			c-0.98-3.01-1.66-5.99-2.08-9.12c-0.47-3.51-4.93-5.35-8-4.54c-3.77,0.99-5.01,4.53-4.54,8c0.42,3.13,1.11,6.11,2.08,9.12
			c1.95,5.99,10.73,6.36,12.54,0c4.16-14.69,8.09-29.47,8.63-44.81c0.26-7.34-10.93-8.8-12.77-1.73
			c-3.82,14.67-8.54,29.06-14.15,43.14c4.18,0,8.36,0,12.54,0c-1.35-6.14-0.73-12.64-0.93-18.9c-0.2-6.27-0.66-12.53-1.29-18.77
			c-0.72-7.02-10.54-9.15-12.77-1.73c-4.96,16.54-6.36,33.85-8.22,50.94c4.26-0.58,8.51-1.15,12.77-1.73
			c-1.71-9.45-0.15-19.96,0.14-29.52c0.3-9.92,0.61-19.84,0.91-29.76C190.78,37.27,177.78,37.28,177.52,45.64L177.52,45.64z"/>
	</g>
</g>
<g>
	<g>
		<path class="st2" d="M185.07,91.06c-0.15,15.01-0.29,30.01-0.44,45.02c-0.07,7.27,10.96,8.9,12.77,1.73
			c3.67-14.56,2.92-29.58,4.24-44.43c-4.33,0-8.67,0-13,0c0.01,12.52-0.2,25.03-0.65,37.54c4.33,0,8.67,0,13,0
			c-0.09-2.22-0.18-4.44-0.28-6.66c-0.35-8.34-13.35-8.38-13,0c0.09,2.22,0.18,4.44,0.28,6.66c0.35,8.35,12.7,8.38,13,0
			c0.45-12.51,0.67-25.02,0.65-37.54c-0.01-8.49-12.27-8.21-13,0c-1.22,13.67-0.4,27.57-3.78,40.97c4.26,0.58,8.51,1.15,12.77,1.73
			c0.15-15.01,0.29-30.01,0.44-45.02C198.15,82.7,185.15,82.69,185.07,91.06L185.07,91.06z"/>
	</g>
</g>
<g>
	<g>
		<path class="st2" d="M190.31,100.63c1.78,5.95,1.32,12.36,1.28,18.51c-0.04,6.59-0.22,13.17-0.5,19.76c-0.36,8.37,12.65,8.35,13,0
			c0.31-7.24,0.49-14.49,0.51-21.73c0.02-6.7,0.19-13.5-1.75-19.99C200.46,89.18,187.91,92.58,190.31,100.63L190.31,100.63z"/>
	</g>
</g>
<g>
	<g>
		<path class="st2" d="M189.46,153.02c0.05,9.8,0.11,19.59,0.16,29.39c0.05,8.39,12.68,8.34,13,0c0.23-6.12,0.1-12.22-0.39-18.32
			c-0.67-8.28-13.67-8.35-13,0c0.49,6.11,0.62,12.2,0.39,18.32c4.33,0,8.67,0,13,0c-0.05-9.8-0.11-19.59-0.16-29.39
			C202.41,144.66,189.41,144.64,189.46,153.02L189.46,153.02z"/>
	</g>
</g>
<g>
	<g>
		<path class="st2" d="M188.4,157.79c-0.36,6.34-0.73,12.68-1.09,19.01c4.33,0,8.67,0,13,0c-0.31-9.3-0.85-18.59-1.62-27.87
			c-0.68-8.28-13.69-8.35-13,0c0.77,9.28,1.3,18.56,1.62,27.87c0.28,8.4,12.52,8.33,13,0c0.36-6.34,0.73-12.68,1.09-19.01
			C201.88,149.43,188.87,149.46,188.4,157.79L188.4,157.79z"/>
	</g>
</g>
<g>
	<g>
		<path class="st2" d="M196.51,150.78c-0.35,3-0.7,6-1.05,9c4.33,0,8.67,0,13,0c-0.21-3.59-0.71-7.18-1.51-10.69
			c-0.76-3.32-4.76-5.59-8-4.54c-3.47,1.12-5.35,4.44-4.54,8c0.31,1.36,0.59,2.73,0.79,4.11c-0.15-1.06,0.1,0.98,0.1,1.04
			c0.06,0.69,0.11,1.39,0.15,2.09c0.2,3.39,2.85,6.66,6.5,6.5c3.86-0.17,6.08-2.87,6.5-6.5c0.35-3,0.7-6,1.05-9
			c0.39-3.39-3.27-6.64-6.5-6.5C199.15,144.45,196.93,147.14,196.51,150.78L196.51,150.78z"/>
	</g>
</g>
<g>
	<g>
		<path class="st2" d="M187.98,149.98c1.01,6.54,2.49,12.96,4.45,19.29c2.05,6.62,10.15,5.67,12.54,0
			c2.5-5.95,3.38-12.24,4.29-18.59c0.5-3.47-0.85-6.98-4.54-8c-3.05-0.84-7.5,1.04-8,4.54c-0.91,6.34-1.79,12.64-4.29,18.59
			c4.18,0,8.36,0,12.54,0c-1.96-6.33-3.44-12.74-4.45-19.29c-0.54-3.47-4.89-5.39-8-4.54C188.82,143,187.45,146.49,187.98,149.98
			L187.98,149.98z"/>
	</g>
</g>
<g>
	<g>
		<path class="st2" d="M189.34,168.49c2.32,9.77,4.14,19.64,5.33,29.62c0.97,8.14,12.6,8.56,13,0c0.3-6.48-0.17-12.81-1.13-19.23
			c-0.53-3.5-4.89-5.36-8-4.54c-3.72,0.98-5.06,4.54-4.54,8c0.79,5.23,0.92,10.49,0.67,15.77c4.33,0,8.67,0,13,0
			c-1.32-11.14-3.2-22.16-5.79-33.08C199.95,156.89,187.41,160.34,189.34,168.49L189.34,168.49z"/>
	</g>
</g>
<g>
	<g>
		<path class="st2" d="M190.99,183.29c-0.24,0.73-0.51,1.45-0.78,2.17c-0.28,0.7-0.29,0.71-0.01,0.04
			c-0.12,0.26-0.24,0.53-0.36,0.79c-0.62,1.31-1.32,2.57-2.08,3.8c-1.78,2.9-0.72,7.28,2.33,8.89c3.17,1.68,6.99,0.76,8.89-2.33
			c1.9-3.1,3.4-6.46,4.54-9.91c1.07-3.23-1.24-7.24-4.54-8C195.41,177.93,192.14,179.83,190.99,183.29L190.99,183.29z"/>
	</g>
</g>
<g>
	<g>
		<path class="st2" d="M181.45,173.96c-0.71,9.97-1.31,19.96-1.82,29.94c4.33,0,8.67,0,13,0c-0.38-8.23-4.07-16.44-6.55-24.22
			c-1.29-4.05-5.77-5.98-9.55-3.88c-4.68,2.59-5.78,9.03-6.63,13.87c-1.45,8.24,9.61,11.35,12.54,3.46
			c0.12-0.33,0.24-0.65,0.36-0.98c1.81-4.9-3.56-9.04-8-8c-6.69,1.57-13.12,5.73-19.26,8.75c-7.51,3.69-0.93,14.9,6.56,11.23
			c5.13-2.52,10.59-6.13,16.16-7.44c-2.67-2.67-5.33-5.33-8-8c-0.12,0.33-0.24,0.65-0.36,0.98c4.18,1.15,8.36,2.3,12.54,3.46
			c0.26-1.49,0.55-2.96,0.95-4.41c0.46-1.67,1.8-2.84-0.29-1.68c-3.18-1.29-6.37-2.59-9.55-3.88c2.06,6.46,5.77,13.97,6.09,20.77
			c0.39,8.37,12.58,8.37,13,0c0.51-9.99,1.11-19.97,1.82-29.94C195.05,165.61,182.04,165.65,181.45,173.96L181.45,173.96z"/>
	</g>
</g>
<g>
	<g>
		<path class="st2" d="M183.54,191.43c-5.77,1.95-9.69,0.5-15.14-1.44c-4.91-1.75-9.77-1.85-14.88-1.01
			c-8.24,1.35-4.74,13.88,3.46,12.54c5.36-0.88,9.61,2.22,14.61,3.35c5.14,1.16,10.44,0.78,15.41-0.91
			C194.87,201.29,191.49,188.73,183.54,191.43L183.54,191.43z"/>
	</g>
</g>
<g>
	<g>
		<path class="st2" d="M180.65,170.79c0.75-1.68,1.3-2.38,2.75-3.51c-3.7-1.53-7.4-3.06-11.1-4.6c0.23,8.52-0.46,16.87-2.25,25.2
			c4.26,0.58,8.51,1.15,12.77,1.73c-0.37-10.43,0.05-20.63,3.68-30.52c-4.26-0.58-8.51-1.15-12.77-1.73
			c0.54,7.63,0.71,15.26,0.5,22.91c-0.2,7.44,10.72,8.68,12.77,1.73c3.14-10.65,5.82-21.41,8.04-32.29
			c-4.26-0.58-8.51-1.15-12.77-1.73c-0.61,9.1-4.25,17.62-7.74,25.93c3.96-0.52,7.92-1.04,11.88-1.55c-0.56-0.8,0.34-7.31,0.38-9.26
			c0.06-4.13,0.05-8.26-0.05-12.4c-0.18-7.95-0.68-15.88-1.43-23.79c-0.79-8.38-12.12-8.33-13,0c-1.2,11.34-4.82,22.25-8.76,32.89
			c4.26,0.58,8.51,1.15,12.77,1.73c2.17-18.56,8.63-36.31,11.28-54.8c-4.26-0.58-8.51-1.15-12.77-1.73
			c0.83,16.82,0.7,33.65-0.36,50.46c-0.53,8.42,12.22,8.21,13,0c1.28-13.4,2.56-26.81,3.83-40.21c-4.26,0.58-8.51,1.15-12.77,1.73
			c1.39,9.97,1.89,20.04,2.43,30.08c4.26-0.58,8.51-1.15,12.77-1.73c-4.26-15.58-12.57-29.39-21.7-42.56
			c-3.73-5.39-11.63-3.29-12.11,3.28c-0.69,9.34-0.94,18.68-0.75,28.04c0.12,6.04,9.2,9.37,12.11,3.28
			c5.41-11.33,8.81-23.57,12.72-35.47c-4.26-0.58-8.51-1.15-12.77-1.73c-0.09,9.79-1.83,19.19-4.44,28.61
			c4.26,0.58,8.51,1.15,12.77,1.73c0.15-10.62,0.23-21.22-0.92-31.79c-0.36-3.25-2.2-5.92-5.64-6.38c-2.91-0.39-6.61,1.46-7.13,4.66
			c-1.66,10.1-2.79,20.26-3.32,30.49c-0.43,8.36,12.57,8.34,13,0c0.47-9.07,1.39-18.07,2.86-27.03c-4.26-0.58-8.51-1.15-12.77-1.73
			c1.15,10.57,1.07,21.17,0.92,31.79c-0.11,7.36,10.81,8.79,12.77,1.73c2.91-10.47,4.81-21.18,4.91-32.06
			c0.07-7.53-10.52-8.57-12.77-1.73c-3.55,10.79-6.5,22.09-11.41,32.37c4.04,1.09,8.08,2.19,12.11,3.28
			c-0.19-9.36,0.06-18.7,0.75-28.04c-4.04,1.09-8.08,2.19-12.11,3.28c8.49,12.26,16.43,24.95,20.39,39.45
			c1.89,6.91,13.17,5.75,12.77-1.73c-0.6-11.22-1.35-22.4-2.9-33.53c-0.44-3.19-4.3-5.04-7.13-4.66c-3.38,0.46-5.32,3.11-5.64,6.38
			c-1.28,13.4-2.56,26.81-3.83,40.21c4.33,0,8.67,0,13,0c1.07-16.81,1.19-33.64,0.36-50.46c-0.34-6.87-11.68-9.35-12.77-1.73
			c-2.81,19.65-9.43,38.5-11.74,58.25c-0.91,7.75,10.41,8.1,12.77,1.73c4.39-11.84,7.9-23.75,9.23-36.35c-4.33,0-8.67,0-13,0
			c0.87,9.18,1.4,18.38,1.5,27.6c0.05,4.45,0.01,8.9-0.13,13.35c-0.12,3.78-0.79,7.77,1.51,11.05c3.43,4.9,9.69,3.66,11.88-1.55
			c4-9.54,7.51-18.98,8.21-29.39c0.49-7.26-11.3-8.92-12.77-1.73c-2.22,10.88-4.9,21.64-8.04,32.29c4.26,0.58,8.51,1.15,12.77,1.73
			c0.21-7.65,0.04-15.28-0.5-22.91c-0.53-7.43-10.22-8.67-12.77-1.73c-4,10.88-4.55,22.5-4.14,33.98
			c0.25,7.04,11.17,9.18,12.77,1.73c2.03-9.45,2.98-19,2.72-28.66c-0.17-6.09-6.79-7.97-11.1-4.6c-2.13,1.67-3.68,3.68-4.78,6.14
			C166.06,171.81,177.26,178.43,180.65,170.79L180.65,170.79z"/>
	</g>
</g>
<g>
	<g>
		<path class="st2" d="M157.14,88.54c1.23,8.8,1.09,17.73,0.03,26.54c-0.43,3.51,3.29,6.47,6.5,6.5c3.86,0.04,6.08-3.03,6.5-6.5
			c1.22-10.07,0.91-19.96-0.49-30c-0.49-3.5-4.92-5.35-8-4.54C157.93,81.53,156.66,85.08,157.14,88.54L157.14,88.54z"/>
	</g>
</g>
<g>
	<g>
		<path class="st2" d="M154.21,106.73c-0.69,6.67-1.39,13.33-2.08,20c4.33,0,8.67,0,13,0c0-3.66,0-7.32,0-10.98c0-8.37-13-8.38-13,0
			c0,3.66,0,7.32,0,10.98c0,8.53,12.15,8.15,13,0c0.69-6.67,1.39-13.33,2.08-20c0.36-3.5-3.25-6.5-6.5-6.5
			C156.9,100.23,154.58,103.22,154.21,106.73L154.21,106.73z"/>
	</g>
</g>
<g>
	<g>
		<path class="st2" d="M149.86,121.54c0.65,13.27,1.3,26.53,1.95,39.8c0.41,8.31,12.96,8.42,13,0c0.06-13.35,0.12-26.69,0.18-40.04
			c-4.26,0.58-8.51,1.15-12.77,1.73c2.05,14.77,3.01,29.67,3.99,44.55c0.55,8.35,12.46,8.38,13,0c0.76-11.85-1.19-23.62-1.1-35.47
			c0.07-8.52-12.18-8.16-13,0c-1.69,16.84-3.38,33.68-5.07,50.52c4.33,0,8.67,0,13,0c0.46-5.13,0.64-10.24,0.57-15.39
			c-4.04,1.09-8.08,2.19-12.11,3.28c1.22,2.87,2.55,5.66,4.02,8.41c2.44,4.57,8.62,3.84,11.23,0c1.76-2.59,3.31-5.24,4.72-8.03
			c-4.04-1.09-8.08-2.19-12.11-3.28c-0.05,5.66-0.18,11.32-0.32,16.98c-0.21,8.43,12.42,8.27,13,0c0.5-7.15,1-14.3,1.5-21.45
			c-4.33,0-8.67,0-13,0c-0.14,8.58-1.13,16.96-3.02,25.33c3.96-0.52,7.92-1.04,11.88-1.55c-2.8-4.48-7.09-11.48-12.51-12.93
			c-2.97-0.79-5.67,0.58-7.34,2.99c-0.07,0.1-0.13,0.19-0.2,0.29c-4.77,6.89,6.49,13.4,11.23,6.56c0.07-0.1,0.13-0.19,0.2-0.29
			c-2.45,1-4.89,1.99-7.34,2.99c-2.6-0.69,0.79,1.52,1.59,2.48c1.18,1.41,2.18,2.92,3.15,4.48c2.82,4.52,10.6,4.11,11.88-1.55
			c2.14-9.46,3.32-19.09,3.49-28.79c0.14-8.44-12.42-8.27-13,0c-0.5,7.15-1,14.3-1.5,21.45c4.33,0,8.67,0,13,0
			c0.14-5.66,0.27-11.32,0.32-16.98c0.05-6.21-9.15-9.16-12.11-3.28c-1.41,2.8-2.96,5.45-4.72,8.03c3.74,0,7.48,0,11.23,0
			c-1.47-2.75-2.8-5.54-4.02-8.41c-2.6-6.14-12.2-2.74-12.11,3.28c0.08,5.15-0.11,10.26-0.57,15.39c-0.74,8.36,12.17,8.23,13,0
			c1.69-16.84,3.38-33.68,5.07-50.52c-4.33,0-8.67,0-13,0c-0.09,11.85,1.86,23.62,1.1,35.47c4.33,0,8.67,0,13,0
			c-1.06-16.05-2.24-32.07-4.45-48c-1.03-7.39-12.74-5.39-12.77,1.73c-0.06,13.35-0.12,26.69-0.18,40.04c4.33,0,8.67,0,13,0
			c-0.65-13.27-1.3-26.53-1.95-39.8C162.45,113.21,149.45,113.16,149.86,121.54L149.86,121.54z"/>
	</g>
</g>
<g>
	<g>
		<path class="st2" d="M160.76,189.1c-1.26-9.72-5.09-18.88-6-28.64c-0.91-9.84-1.91-20.1,0.9-29.71
			c-4.26-0.58-8.51-1.15-12.77-1.73c0.78,11.93-0.23,23.8-1.35,35.68c-0.68,7.24,11.41,8.92,12.77,1.73
			c2.88-15.22-0.87-31.11,3.37-46.06c2.31-8.14-9.78-11.26-12.54-3.46c-1.48,4.19-3.1,8.28-4.95,12.32
			c3.96,1.67,7.92,3.34,11.88,5.01c1.4-9.2,2.81-18.4,4.21-27.6c-4.18-1.15-8.36-2.3-12.54-3.46c-0.72,5.25-1.44,10.51-2.16,15.76
			c-1.13,8.25,9.4,11.35,12.54,3.46c3.46-8.71,5.89-17.65,7.3-26.92c0.53-3.5-0.88-6.95-4.54-8c-3.07-0.88-7.47,1.08-8,4.54
			c-1.41,9.27-3.84,18.21-7.3,26.92c4.18,1.15,8.36,2.3,12.54,3.46c0.72-5.25,1.44-10.51,2.16-15.76c0.48-3.5-0.85-6.94-4.54-8
			c-3.07-0.88-7.47,1.08-8,4.54c-1.4,9.2-2.81,18.4-4.21,27.6c-0.49,3.24,0.55,6.31,3.76,7.67c2.73,1.15,6.77,0.29,8.12-2.66
			c2.31-5.05,4.41-10.18,6.26-15.42c-4.18-1.15-8.36-2.3-12.54-3.46c-4.3,15.16-0.49,30.79-3.37,46.06
			c4.26,0.58,8.51,1.15,12.77,1.73c1.12-11.88,2.13-23.75,1.35-35.68c-0.47-7.16-10.63-9.02-12.77-1.73
			c-3,10.25-2.37,20.86-1.52,31.37c0.85,10.5,4.81,20.1,6.15,30.43c0.45,3.51,2.66,6.46,6.5,6.5
			C157.43,195.64,161.21,192.59,160.76,189.1L160.76,189.1z"/>
	</g>
</g>
<g>
	<g>
		<path class="st2" d="M162.25,88.85c0.63-5,1.09-10.03,0.79-15.07c-0.27-4.53-1.36-8.92-1.84-13.42
			c-0.97-9.17,0.63-19.01,2.2-28.01c-4.18,0-8.36,0-12.54,0c1.75,10.61,1.52,21.44,4.52,31.85c1.83,6.34,10.55,6,12.54,0
			c0.65-1.97,0.92-3.91,0.94-5.98c0.1-8.37-12.9-8.37-13,0c0.1,0.89-0.06,1.73-0.48,2.53c4.18,0,8.36,0,12.54,0
			c-2.99-10.36-2.78-21.26-4.52-31.85c-1.02-6.23-11.46-6.18-12.54,0c-1.68,9.66-3.31,19.86-2.79,29.69
			c0.27,5.12,1.65,10.09,1.96,15.2c0.31,5.04-0.16,10.08-0.79,15.07c-0.44,3.51,3.31,6.47,6.5,6.5
			C159.62,95.39,161.81,92.32,162.25,88.85L162.25,88.85z"/>
	</g>
</g>
<g>
	<g>
		<path class="st2" d="M135.34,44.23c3.51,3.3,7.01,6.6,10.52,9.91c2.56,2.41,6.66,2.53,9.19,0c2.43-2.43,2.56-6.78,0-9.19
			c-3.51-3.3-7.01-6.6-10.52-9.91c-2.56-2.41-6.66-2.53-9.19,0C132.91,37.47,132.78,41.82,135.34,44.23L135.34,44.23z"/>
	</g>
</g>
<g>
	<g>
		<path class="st2" d="M141.21,48.59c2.83,8,5.74,16.45,6.77,24.91c1,8.2-1.24,15.37-5.55,22.28c-4,6.42-7.26,12.63-8.63,20.17
			c-1.58,8.73-1.22,17.54-0.71,26.35c0.48,8.32,13.49,8.37,13,0c-0.51-8.74-1.19-17.77,0.98-26.35c2.01-7.94,7.44-13.95,10.63-21.37
			c6.97-16.26,1.65-33.6-3.96-49.45C150.98,37.3,138.41,40.67,141.21,48.59L141.21,48.59z"/>
	</g>
</g>
<g>
	<g>
		<path class="st2" d="M127.96,139.57c3.61,9.19,7.22,18.37,10.83,27.56c3.39,8.65,6.92,17.35,6.85,26.78
			c-0.06,8.37,12.94,8.38,13,0c0.07-10.01-3.04-19.3-6.64-28.51c-3.82-9.77-7.67-19.52-11.51-29.28
			C137.47,128.41,124.9,131.77,127.96,139.57L127.96,139.57z"/>
	</g>
</g>
<g>
	<g>
		<path class="st2" d="M143.18,153.35c-3.2-1.32-8.53-5.11-9.07-8.67c-0.6-3.92,1.45-9.35,2.33-13.11
			c1.48-6.32,7.76-17.84,1.22-22.99c-6.5-5.12-15.77,4.02-9.19,9.19c-1.68-1.32-0.03-3.65-1.53-0.69c-0.66,1.31-0.96,3.14-1.36,4.57
			c-0.69,2.45-1.32,4.91-1.88,7.39c-1.2,5.25-2.76,11.12-2.53,16.53c0.42,9.72,10.33,16.92,18.56,20.31c3.27,1.35,7.11-1.46,8-4.54
			C148.78,157.63,146.41,154.69,143.18,153.35L143.18,153.35z"/>
	</g>
</g>
<g>
	<g>
		<path class="st2" d="M132.64,140.08c-0.68-7.16-0.66-14.3,0.06-21.46c0.35-3.5-3.24-6.5-6.5-6.5c-3.81,0-6.15,2.99-6.5,6.5
			c-0.72,7.16-0.74,14.29-0.06,21.46c0.33,3.49,2.75,6.5,6.5,6.5C129.4,146.58,132.98,143.6,132.64,140.08L132.64,140.08z"/>
	</g>
</g>
<g>
	<g>
		<path class="st2" d="M132.47,123.42c-0.24-2.16-0.49-4.35-0.46-6.53c0.04-2.38,0.37-2.69,2.3-3.93c4.11-2.64,8.04-5.59,11.38-9.18
			c6.46-6.94,10.96-15.33,15.29-23.69c3.84-7.42-7.37-14-11.23-6.56c-4.85,9.37-9.84,19.32-18.44,25.83
			c-3.59,2.72-8.01,4.53-10.37,8.6c-2.66,4.59-2.04,10.43-1.47,15.46C120.4,131.64,133.41,131.73,132.47,123.42L132.47,123.42z"/>
	</g>
</g>
<g>
	<g>
		<path class="st2" d="M146.23,197.58c-0.07,0.23-0.11,0.48-0.11,0.72c0.33,0,0.67,0,1,0c0-0.05,0-0.09,0-0.14
			c0-0.02,0.01-0.05,0.01-0.07c0,0.03-0.02,0.1,0,0.03c0.01-0.04,0.02-0.09,0.03-0.13c0.01-0.02,0.01-0.04,0.02-0.06
			c0.01-0.02,0.04-0.11,0.01-0.03c-0.03,0.07,0,0,0.01-0.02c0.01-0.02,0.02-0.04,0.03-0.06c0.02-0.04,0.05-0.08,0.07-0.11
			c0.01-0.01,0.05-0.07,0.01-0.02c-0.04,0.06,0,0,0.01-0.01c0.03-0.04,0.07-0.07,0.11-0.11c-0.28-0.07-0.56-0.15-0.84-0.22
			c0.02,0.11,0.04,0.21,0.06,0.32c0.01,0.06,0.01,0.03,0-0.01c0,0.03,0.01,0.05,0.01,0.08c0.01,0.06,0.01,0.12,0.02,0.18
			c0.02,0.22,0.02,0.45,0.02,0.67c0.28-0.12,0.57-0.24,0.85-0.35c-0.06-0.06-0.11-0.11-0.17-0.18c-0.02-0.03-0.05-0.05-0.07-0.08
			c-0.01-0.02-0.03-0.04-0.04-0.05c0.01,0.02,0.02,0.03,0.04,0.05c-0.06-0.05-0.1-0.14-0.14-0.2c-0.04-0.06-0.08-0.13-0.12-0.19
			c-0.04-0.07-0.07-0.13-0.1-0.2c-0.02-0.03-0.07-0.11-0.01-0.01c-0.02-0.03-0.03-0.08-0.04-0.11c-0.05-0.15-0.1-0.3-0.13-0.45
			c-0.05-0.24-0.32-0.39-0.55-0.36c-0.24,0.03-0.44,0.24-0.43,0.49c0,0.07,0,0.15-0.01,0.22c0,0.03,0,0.07-0.01,0.1
			c0-0.02,0-0.04,0.01-0.05c0,0.03-0.01,0.05-0.01,0.08c0.33,0.04,0.65,0.09,0.98,0.13c0-0.03,0-0.07,0-0.1
			c0-0.02,0.01-0.08,0.01-0.1c0.01,0.04-0.02,0.1,0,0.01c0.01-0.03,0.01-0.07,0.02-0.1c0.01-0.03,0.02-0.06,0.03-0.08
			c0.03-0.11-0.05,0.09,0-0.01c0.03-0.06,0.07-0.12,0.11-0.18c-0.31-0.08-0.62-0.17-0.93-0.25c0,0.08-0.01,0.15-0.01,0.23
			c-0.01,0.13,0.02-0.11,0,0.02c-0.01,0.04-0.01,0.08-0.02,0.11c-0.02,0.07-0.04,0.15-0.06,0.22c-0.01,0.03-0.02,0.06-0.03,0.09
			c-0.01,0.02-0.01,0.04-0.02,0.05c0.03-0.06,0.03-0.06,0-0.01c0.31,0.08,0.62,0.17,0.93,0.25c0.02-0.16,0.03-0.33,0.05-0.49
			c0.02-0.25-0.21-0.46-0.43-0.49c-0.22-0.03-0.51,0.11-0.55,0.36c-0.02,0.14-0.05,0.28-0.09,0.41c-0.02,0.06-0.04,0.12-0.06,0.18
			c-0.04,0.12,0.05-0.09-0.01,0.02c-0.04,0.07-0.08,0.1,0.07-0.02c0.03-0.05,0.08-0.08,0.13-0.08c0.04-0.01,0.04-0.01-0.01,0
			c-0.03,0-0.07,0.01-0.1,0.01c-0.07,0.01-0.15,0.01-0.22,0.01c-0.15,0-0.3,0-0.45-0.01c-0.26-0.02-0.51,0.24-0.5,0.5
			c0.01,0.29,0.22,0.48,0.5,0.5c0.18,0.01,0.35,0.02,0.53,0.01c0.24-0.01,0.52-0.01,0.72-0.16c0.18-0.14,0.26-0.38,0.34-0.6
			c0.06-0.16,0.1-0.33,0.12-0.5c-0.33-0.04-0.65-0.09-0.98-0.13c-0.02,0.16-0.03,0.33-0.05,0.49c-0.02,0.21,0.17,0.44,0.37,0.48
			c0.2,0.05,0.47-0.02,0.56-0.23c0.18-0.39,0.28-0.79,0.29-1.22c0-0.21-0.16-0.43-0.37-0.48c-0.23-0.05-0.43,0.04-0.56,0.23
			c-0.21,0.31-0.32,0.7-0.3,1.08c0.01,0.25,0.18,0.46,0.43,0.49c0.23,0.03,0.5-0.11,0.55-0.36c0.04-0.2,0.06-0.41,0.06-0.61
			c-0.33,0.04-0.65,0.09-0.98,0.13c0.15,0.71,0.52,1.37,1.03,1.87c0.32,0.31,0.84,0.08,0.85-0.35c0.02-0.5-0.03-1.01-0.14-1.51
			c-0.08-0.38-0.58-0.46-0.84-0.22c-0.39,0.37-0.62,0.9-0.61,1.44c0,0.26,0.23,0.51,0.5,0.5c0.28-0.01,0.49-0.22,0.5-0.5
			c0-0.05,0.01-0.11,0.01-0.16c0.01-0.11-0.02,0.09,0-0.02c0.02-0.09,0.04-0.18,0.07-0.27c0.08-0.25-0.09-0.56-0.35-0.62
			C146.58,197.17,146.32,197.31,146.23,197.58L146.23,197.58z"/>
	</g>
</g>
<g>
	<g>
		<path class="st2" d="M145.08,196.78c-0.02,0.12-0.05,0.25-0.05,0.37c0,0.07,0.01,0.13,0.04,0.19c0.02,0.06,0.05,0.12,0.1,0.16
			c0.05,0.05,0.1,0.08,0.16,0.1c0.06,0.03,0.12,0.05,0.19,0.04c0.13-0.01,0.26-0.05,0.35-0.15c0.03-0.03,0.05-0.07,0.08-0.1
			c0.05-0.08,0.07-0.16,0.07-0.25c0.01-0.16,0.02-0.31,0.04-0.47c-0.33,0-0.67,0-1,0c-0.01,0.06-0.01,0.13-0.02,0.19
			c0,0.03-0.01,0.06-0.01,0.1c-0.01,0.14,0.05,0.29,0.15,0.39c0.06,0.06,0.14,0.1,0.22,0.13c0.07,0.02,0.13,0.02,0.2,0.01
			c0.07,0,0.13-0.02,0.19-0.06c0.08-0.04,0.13-0.1,0.18-0.18c0.04-0.08,0.08-0.16,0.13-0.24c0.05-0.07,0.1-0.13,0.14-0.21
			c-0.3-0.13-0.61-0.26-0.91-0.39c-0.01,0.07-0.02,0.14-0.04,0.21c0.32,0,0.64,0,0.96,0c0,0,0-0.01,0-0.01
			c0.01,0.04,0.01,0.09,0.02,0.13c0-0.01,0-0.01,0-0.02c-0.01,0.04-0.01,0.09-0.02,0.13c0.01-0.07,0.02-0.14,0.03-0.21
			c0.02-0.07,0.02-0.13,0.01-0.2c0-0.07-0.02-0.13-0.06-0.19c-0.03-0.06-0.07-0.11-0.13-0.14c-0.05-0.04-0.1-0.07-0.17-0.09
			c-0.13-0.03-0.27-0.02-0.39,0.05c-0.03,0.03-0.07,0.05-0.1,0.08c-0.06,0.06-0.1,0.14-0.13,0.22c-0.01,0.05-0.01,0.09-0.02,0.14
			c-0.02,0.12-0.06,0.25-0.01,0.37c0.02,0.04,0.03,0.08,0.05,0.12c0.03,0.06,0.07,0.11,0.13,0.14c0.03,0.03,0.07,0.05,0.11,0.06
			c0.06,0.03,0.12,0.05,0.19,0.04c0.04-0.01,0.09-0.01,0.13-0.02c0.04-0.02,0.08-0.03,0.12-0.05c0.06-0.03,0.11-0.07,0.14-0.13
			c0.04-0.05,0.07-0.1,0.09-0.17c0.02-0.07,0.03-0.14,0.04-0.21c0.02-0.07,0.02-0.13,0.01-0.2c0-0.07-0.02-0.13-0.06-0.19
			c-0.03-0.03-0.05-0.07-0.08-0.1c-0.05-0.05-0.1-0.08-0.16-0.1c-0.04-0.02-0.08-0.03-0.13-0.03c-0.07-0.01-0.13-0.01-0.2,0.01
			c-0.12,0.04-0.24,0.11-0.3,0.23c-0.04,0.08-0.09,0.14-0.14,0.21c-0.05,0.07-0.09,0.15-0.13,0.24c0.26-0.03,0.52-0.07,0.79-0.1
			c0,0,0,0,0,0c0.04,0.07,0.09,0.15,0.13,0.22c0,0,0,0,0-0.01c0.01,0.04,0.01,0.09,0.02,0.13c0-0.05,0.01-0.1,0.01-0.15
			c0.01-0.05,0.01-0.11,0.02-0.16c0-0.07-0.01-0.13-0.04-0.19c-0.02-0.06-0.05-0.12-0.1-0.16c-0.05-0.05-0.1-0.08-0.16-0.1
			c-0.06-0.03-0.12-0.05-0.19-0.04c-0.13,0.01-0.26,0.05-0.35,0.15c-0.03,0.03-0.05,0.07-0.08,0.1c-0.05,0.08-0.07,0.16-0.07,0.25
			c-0.02,0.16-0.03,0.31-0.04,0.47c0.33,0,0.67,0,1,0c0-0.04,0-0.07,0.01-0.11c-0.01,0.04-0.01,0.09-0.02,0.13
			c0.01-0.04,0.01-0.09,0.02-0.13c0.02-0.07,0.02-0.13,0.01-0.2c0-0.07-0.02-0.13-0.06-0.19c-0.03-0.06-0.07-0.11-0.13-0.14
			c-0.05-0.04-0.1-0.07-0.17-0.09c-0.13-0.03-0.27-0.02-0.39,0.05C145.2,196.54,145.1,196.65,145.08,196.78L145.08,196.78z"/>
	</g>
</g>
<g>
	<g>
		<path class="st2" d="M145.05,198.61c0.64,0,0.64-1,0-1C144.41,197.61,144.4,198.61,145.05,198.61L145.05,198.61z"/>
	</g>
</g>
<g>
	<g>
		<path class="st2" d="M145.06,198.63c0.64,0,0.64-1,0-1C144.41,197.63,144.41,198.63,145.06,198.63L145.06,198.63z"/>
	</g>
</g>
<g>
	<g>
		<path class="st2" d="M145.05,198.63c0.64,0,0.64-1,0-1C144.4,197.63,144.4,198.63,145.05,198.63L145.05,198.63z"/>
	</g>
</g>
<g>
	<g>
		<path class="st2" d="M145.04,198.63c0.64,0,0.64-1,0-1C144.4,197.63,144.39,198.63,145.04,198.63L145.04,198.63z"/>
	</g>
</g>
<g>
	<g>
		<path class="st2" d="M145.04,198.64c0.64,0,0.64-1,0-1C144.39,197.64,144.39,198.64,145.04,198.64L145.04,198.64z"/>
	</g>
</g>
<g>
	<g>
		<path class="st2" d="M145.04,198.64c0.64,0,0.64-1,0-1C144.39,197.64,144.39,198.64,145.04,198.64L145.04,198.64z"/>
	</g>
</g>
<g>
	<g>
		<path class="st2" d="M145.03,198.64c0.64,0,0.64-1,0-1C144.39,197.64,144.38,198.64,145.03,198.64L145.03,198.64z"/>
	</g>
</g>
<g>
	<g>
		<path class="st2" d="M145.03,198.64c0.64,0,0.64-1,0-1C144.38,197.64,144.38,198.64,145.03,198.64L145.03,198.64z"/>
	</g>
</g>
<g>
	<g>
		<path class="st2" d="M145.02,198.64c0.64,0,0.64-1,0-1C144.38,197.64,144.37,198.64,145.02,198.64L145.02,198.64z"/>
	</g>
</g>
<g>
	<g>
		<path class="st2" d="M145.02,198.68c0.64,0,0.64-1,0-1C144.37,197.68,144.37,198.68,145.02,198.68L145.02,198.68z"/>
	</g>
</g>
<g>
	<g>
		<path class="st2" d="M145.02,198.68c0.64,0,0.64-1,0-1C144.37,197.68,144.37,198.68,145.02,198.68L145.02,198.68z"/>
	</g>
</g>
<g>
	<g>
		<path class="st2" d="M145.01,198.68c0.64,0,0.64-1,0-1C144.36,197.68,144.36,198.68,145.01,198.68L145.01,198.68z"/>
	</g>
</g>
<g>
	<g>
		<path class="st2" d="M121.71,154.54c0.57,1.04,1.25,1.99,1.98,2.91c1.01-1.31,2.02-2.62,3.03-3.93c-0.88-0.54-1.74-1.11-2.57-1.73
			c-0.1-0.08-0.2-0.15-0.3-0.23c-0.35-0.27,0.33,0.26,0.09,0.07c-0.2-0.16-0.39-0.31-0.59-0.47c-0.41-0.34-0.81-0.68-1.2-1.04
			c-1.01,1.31-2.02,2.62-3.03,3.93c0.09,0.03,0.17,0.07,0.25,0.12c-0.31-0.26-0.37-0.3-0.17-0.13c0.1,0.1,0.21,0.2,0.32,0.3
			c0.26,0.25,0.51,0.5,0.76,0.76c0.46,0.48,0.91,0.96,1.36,1.46c0.44,0.5,0.87,1,1.29,1.51c0.22,0.27,0.43,0.58,0.67,0.84
			c-0.47-0.51-0.12-0.15-0.02-0.02c0.12,0.16,0.24,0.33,0.37,0.49c0.5-1.22,1-2.45,1.49-3.67c-0.04,0.01-0.08,0.03-0.12,0.04
			c0.22-0.03,0.44-0.06,0.66-0.09c-0.04,0-0.09,0-0.13,0.01c0.22,0.03,0.44,0.06,0.66,0.09c-0.14-0.02-0.26-0.05-0.39-0.11
			c0.2,0.08,0.4,0.17,0.6,0.25c-0.77-0.35-1.54-0.73-2.3-1.1c-0.98-0.47-2.24-0.47-3.03,0.39c-0.29,0.32-0.51,0.69-0.64,1.1
			c-0.17,0.53-0.1,1.46,0.25,1.93c1.18,1.56,2.48,2.85,4.09,3.97c0.84-1.44,1.68-2.88,2.52-4.32c-0.42-0.22-0.84-0.47-1.24-0.74
			c-0.17-0.11-0.37-0.33-0.55-0.4c0.09,0.03,0.41,0.33,0.15,0.11c-0.12-0.1-0.23-0.19-0.35-0.29c-1.01,1.31-2.02,2.62-3.03,3.93
			c1.92,1.1,4.02,1.74,6.23,1.86c1.31,0.07,2.56-1.2,2.5-2.5c-0.06-1.41-1.1-2.42-2.5-2.5c-0.3-0.02-0.6-0.04-0.89-0.08
			c0.22,0.03,0.44,0.06,0.66,0.09c-0.94-0.14-1.85-0.4-2.73-0.76c0.2,0.08,0.4,0.17,0.6,0.25c-0.46-0.2-0.91-0.42-1.34-0.67
			c-1.09-0.62-2.47-0.34-3.23,0.64c-0.71,0.92-0.75,2.46,0.2,3.28c0.92,0.8,1.92,1.53,3,2.1c1.16,0.61,2.77,0.33,3.42-0.9
			c0.68-1.28,0.25-2.62-0.9-3.42c-0.15-0.11-0.3-0.24-0.47-0.34c0.59,0.34,0.21,0.16,0.06,0.04c-0.28-0.23-0.54-0.47-0.8-0.72
			c-0.24-0.23-0.47-0.47-0.7-0.72c-0.11-0.12-0.22-0.25-0.33-0.38c-0.06-0.07-0.12-0.15-0.18-0.22c0.24,0.32,0.29,0.37,0.13,0.17
			c-1.14,1.14-2.28,2.28-3.42,3.42c0.58,0.28,1.16,0.56,1.74,0.84c1.01,0.48,1.99,0.94,3.13,0.58c0.76-0.24,1.31-0.72,1.62-1.45
			c0.28-0.67,0.33-1.6-0.13-2.22c-0.97-1.32-1.99-2.61-3.09-3.84c-0.48-0.53-0.96-1.06-1.46-1.57c-0.6-0.61-1.26-1.38-2.06-1.72
			c-0.62-0.26-1.25-0.47-1.93-0.25c-0.53,0.17-0.96,0.46-1.3,0.9c-0.73,0.94-0.73,2.44,0.2,3.28c1.72,1.56,3.6,2.97,5.59,4.18
			c1.07,0.65,2.48,0.32,3.23-0.64c0.33-0.42,0.56-0.97,0.54-1.51c-0.03-0.7-0.3-1.22-0.73-1.77c-0.21-0.26,0.05,0.05,0.11,0.15
			c-0.07-0.11-0.15-0.2-0.23-0.31c-0.13-0.19-0.26-0.37-0.39-0.56c-0.25-0.38-0.48-0.77-0.7-1.18c-0.63-1.15-2.31-1.61-3.42-0.9
			C121.44,151.87,121.04,153.31,121.71,154.54L121.71,154.54z"/>
	</g>
</g>
<g>
	<g>
		<path class="st2" d="M127.94,160.53c1.23,1.42,2.54,2.76,3.94,4.02c0.93,0.84,2.27,0.98,3.28,0.2c0.91-0.7,1.37-2.21,0.64-3.23
			c-0.93-1.3-1.98-2.49-3.06-3.66c-0.89-0.96-2.65-0.97-3.54,0c-0.96,1.04-0.93,2.49,0,3.54c1.89,2.11,3.8,4.21,6.04,5.96
			c1.03,0.8,2.55,1.08,3.54,0c0.93-1.01,0.97-2.53,0-3.54c-0.22-0.23-0.44-0.46-0.65-0.7c-0.11-0.12-0.21-0.24-0.31-0.36
			c-0.17-0.21-0.2-0.25-0.1-0.12c0.1,0.13,0.06,0.09-0.1-0.13c-0.09-0.13-0.19-0.26-0.28-0.39c-0.18-0.26-0.36-0.53-0.52-0.8
			c-1.31,1.01-2.62,2.02-3.93,3.03c1.46,1.24,2.74,2.67,4,4.1c0.81-1.39,1.62-2.79,2.43-4.18c-1.26-0.5-2.52-1-3.78-1.49
			c-0.59-0.23-1.17-0.46-1.76-0.69c-0.24-0.1-0.49-0.19-0.73-0.29c-0.16-0.07-0.32-0.13-0.48-0.2c0.2,0.08,0.15,0.06-0.12-0.06
			c-1.18-0.55-2.31-1.22-3.54-1.66c-1.18-0.42-2.43-0.7-3.65-1.04c-1.26-0.35-2.78,0.43-3.08,1.75c-0.3,1.32,0.4,2.7,1.75,3.08
			c1.22,0.34,2.45,0.63,3.65,1.04c0.68,0.23-0.34-0.2,0.3,0.13c0.29,0.15,0.58,0.31,0.86,0.46c0.54,0.28,1.1,0.53,1.66,0.78
			c2.5,1.07,5.06,2.03,7.59,3.03c0.98,0.39,2.35-0.25,2.82-1.15c0.54-1.03,0.37-2.16-0.39-3.03c-1.27-1.44-2.54-2.86-4-4.1
			c-0.96-0.81-2.25-1-3.28-0.2c-0.95,0.74-1.31,2.16-0.64,3.23c0.79,1.26,1.71,2.45,2.74,3.52c1.18-1.18,2.36-2.36,3.54-3.54
			c-2.24-1.75-4.14-3.85-6.04-5.96c-1.18,1.18-2.36,2.36-3.54,3.54c0.44,0.47,0.88,0.95,1.3,1.44c0.2,0.23,0.39,0.46,0.58,0.69
			c0.19,0.23,0.22,0.27,0.09,0.1c0.1,0.14,0.21,0.28,0.3,0.42c1.31-1.01,2.62-2.02,3.93-3.03c-1.39-1.26-2.71-2.6-3.94-4.02
			c-0.86-0.99-2.67-0.95-3.54,0C126.97,158.05,127.03,159.47,127.94,160.53L127.94,160.53z"/>
	</g>
</g>
<g>
	<g>
		<path class="st2" d="M135.51,169c0.67,1.13,1.55,2.12,2.46,3.06c0.4,0.41,0.8,0.82,1.18,1.24c0.19,0.21,0.38,0.42,0.55,0.65
			c-0.26-0.34,0.26,0.42,0.31,0.49c0.94-1.22,1.88-2.45,2.82-3.67c0.27,0.07,0.6,0.42,0.22,0.04c-0.17-0.17-0.37-0.33-0.56-0.49
			c-0.34-0.29-0.67-0.59-1.01-0.88c-0.63-0.55-1.27-1.11-1.9-1.66c-0.6-0.53-1.23-1.03-1.78-1.62c-0.58-0.62-1.21-1.16-1.98-1.52
			c-0.21-0.1-0.42-0.19-0.63-0.27c0.07,0.03-0.68-0.3-0.45-0.19c0.24,0.11-0.32-0.16-0.37-0.19c-0.15-0.08-0.29-0.17-0.43-0.27
			c-0.65-0.43-1.24-0.94-1.88-1.38c-1.42-0.95-2.98-1.68-4.58-2.27c-1.23-0.45-2.79,0.51-3.08,1.75c-0.32,1.41,0.43,2.59,1.75,3.08
			c0.16,0.06,0.33,0.12,0.49,0.19c0.78,0.3-0.18-0.09,0.25,0.11c0.36,0.16,0.71,0.34,1.06,0.52c0.66,0.35,1.3,0.74,1.91,1.17
			c0.63,0.44,1.21,0.97,1.88,1.36c0.44,0.25,0.91,0.43,1.37,0.63c0.14,0.06,0.32,0.15,0.08,0.04c0.18,0.09,0.36,0.18,0.54,0.27
			c0.33,0.17-0.19-0.2,0.07,0.03c0.11,0.1,0.21,0.21,0.31,0.32c0.25,0.27,0.5,0.52,0.77,0.77c0.64,0.58,1.29,1.13,1.94,1.7
			c0.63,0.55,1.27,1.11,1.9,1.66c0.84,0.73,1.66,1.64,2.77,1.93c2.06,0.53,4-1.78,2.82-3.67c-0.69-1.12-1.57-2.1-2.48-3.04
			c-0.4-0.41-0.8-0.82-1.18-1.25c-0.06-0.07-0.56-0.68-0.3-0.34c-0.2-0.26-0.37-0.53-0.54-0.81c-0.67-1.12-2.28-1.63-3.42-0.9
			C135.28,166.31,134.79,167.8,135.51,169L135.51,169z"/>
	</g>
</g>
<g>
	<g>
		<path class="st2" d="M131.61,166.67c0.37,0.96,0.85,1.86,1.68,2.51c0.59-1.42,1.18-2.85,1.77-4.27c0.11,0.01,0.22,0.02,0.34,0.03
			c0.37,0.21,0.74,0.43,1.1,0.64c-0.04-0.04-0.08-0.08-0.11-0.13c-1.01,1.31-2.02,2.62-3.03,3.93c1.22,0.94,2.88,2.43,4.25,3.59
			c0.81-1.39,1.62-2.79,2.43-4.18c-0.21-0.05-0.42-0.1-0.63-0.16c-2.4-0.59-4.22,2.38-2.43,4.18c0.68,0.69,1.34,1.4,1.97,2.14
			c0.28,0.34,0.56,0.68,0.83,1.02c-0.21-0.27,0.26,0.35,0.25,0.33c0.13,0.18,0.26,0.36,0.39,0.54c0.53,0.75,1.04,1.53,1.51,2.32
			c0.23,0.38,0.44,0.76,0.66,1.15c0.12,0.23,0.27,0.46,0.37,0.7c-0.13-0.31,0,0.44-0.01,0c1.55-0.42,3.11-0.84,4.66-1.26
			c-0.63-1-1.18-2.05-1.65-3.13c-0.52-1.2-2.38-1.57-3.42-0.9c-1.25,0.81-1.45,2.13-0.9,3.42c0.47,1.09,1.02,2.13,1.65,3.13
			c1.28,2.04,4.7,1.29,4.66-1.26c-0.02-1.37-0.65-2.53-1.3-3.69c-0.54-0.96-1.13-1.89-1.76-2.79c-1.31-1.87-2.76-3.64-4.37-5.26
			c-0.81,1.39-1.62,2.79-2.43,4.18c0.21,0.05,0.42,0.1,0.63,0.16c1.04,0.26,2.3-0.16,2.82-1.15c0.49-0.93,0.47-2.3-0.39-3.03
			c-1.74-1.47-3.46-2.98-5.26-4.37c-0.98-0.76-2.55-0.23-3.23,0.64c-0.78,1.01-0.65,2.35,0.2,3.28c0.56,0.61,1.39,0.95,2.21,0.92
			c1.01-0.05,1.89-0.59,2.28-1.54c0.35-0.83,0.26-2.13-0.52-2.73c-0.18-0.14-0.34-0.28-0.49-0.45c0.31,0.36-0.1-0.36,0.09,0.15
			c-0.47-1.22-1.7-2.19-3.08-1.75C132.17,163.98,131.11,165.37,131.61,166.67L131.61,166.67z"/>
	</g>
</g>
<g>
	<g>
		<path class="st2" d="M125.19,163.1c3.22,0,3.22-5,0-5C121.97,158.1,121.97,163.1,125.19,163.1L125.19,163.1z"/>
	</g>
</g>
<g>
	<g>
		<path class="st2" d="M143.33,183.59c0.14,0.23,0.25,0.47,0.36,0.71c-0.26-0.54,0.01,0.04,0.05,0.13c0.05,0.12,0.09,0.25,0.12,0.37
			c0.06,0.26,0.06,0.25,0-0.02c0,0.23,0,0.46,0,0.69c0.01,1.23,0.22,2.45,0.42,3.66c0.04,0.23,0.07,0.46,0.11,0.69
			c0.04,0.3,0.05,0.31,0.01,0.03c0.02,0.15,0.04,0.31,0.05,0.46c0.05,0.55,0.05,1.1,0.07,1.65c0.04,1.23,0.23,2.44,0.43,3.65
			c0.22,1.29,1.88,2.13,3.08,1.75c1.4-0.45,1.98-1.69,1.75-3.08c-0.05-0.3-0.1-0.61-0.15-0.91c-0.04-0.3-0.05-0.3-0.01-0.02
			c-0.01-0.11-0.03-0.23-0.04-0.34c-0.06-0.59-0.06-1.17-0.08-1.76c-0.04-1.24-0.24-2.46-0.44-3.67c-0.04-0.27-0.08-0.54-0.13-0.8
			c-0.03-0.18-0.02-0.15,0.01,0.09c-0.02-0.15-0.03-0.31-0.05-0.46c-0.05-0.54-0.02-1.08-0.04-1.62c-0.05-1.3-0.55-2.61-1.21-3.72
			c-0.67-1.12-2.28-1.63-3.42-0.9C143.1,180.9,142.61,182.39,143.33,183.59L143.33,183.59z"/>
	</g>
</g>
<g>
	<g>
		<path class="st2" d="M144.31,194.53c0.06,0.47,0.11,0.88,0.25,1.32c0.07,0.23,0.14,0.45,0.18,0.69c-0.03-0.22-0.06-0.44-0.09-0.66
			c0.02,0.13,0.02,0.25,0,0.38c0.03-0.22,0.06-0.44,0.09-0.66c0,0.02-0.01,0.04-0.02,0.07c0.08-0.2,0.17-0.4,0.25-0.6
			c-0.01,0.01-0.01,0.02-0.02,0.03c0.13-0.17,0.26-0.34,0.39-0.51c-0.01,0.01-0.02,0.01-0.02,0.02c0.17-0.13,0.34-0.26,0.51-0.39
			c-0.26,0.15-0.53,0.32-0.72,0.55c-0.11,0.13-0.32,0.38-0.41,0.53c-0.01,0.02-0.03,0.05-0.04,0.07c-0.08,0.2-0.17,0.4-0.25,0.6
			c0,0.01-0.01,0.02-0.01,0.03c-0.01,0.03-0.02,0.06-0.02,0.09c-0.1,0.33-0.12,0.66-0.04,1c0.02,0.33,0.11,0.64,0.3,0.93
			c0.16,0.29,0.37,0.53,0.64,0.7c0.24,0.22,0.52,0.37,0.85,0.45c0.22,0.03,0.44,0.06,0.66,0.09c0.45,0,0.87-0.12,1.26-0.34
			c0.17-0.13,0.34-0.26,0.51-0.39c0.31-0.31,0.52-0.68,0.64-1.1c0.01-0.04,0.02-0.08,0.03-0.12c-0.08,0.2-0.17,0.4-0.25,0.6
			c0.01-0.03,0.03-0.06,0.05-0.08c-0.13,0.17-0.26,0.34-0.39,0.51c0.03-0.03,0.06-0.06,0.09-0.09c-0.17,0.13-0.34,0.26-0.51,0.39
			c0.04-0.03,0.07-0.04,0.11-0.06c0.35-0.18,0.76-0.58,0.95-0.93c0.06-0.1,0.11-0.21,0.14-0.33c0.06-0.11,0.1-0.22,0.14-0.33
			c0.08-0.24,0.08-0.52,0.1-0.77c0.01-0.09,0-0.18-0.01-0.26c-0.03-0.3-0.06-0.61-0.13-0.91c-0.08-0.37-0.24-0.72-0.29-1.1
			c0.03,0.22,0.06,0.44,0.09,0.66c0-0.01,0-0.03,0-0.04c0.01-0.34-0.06-0.67-0.22-0.96c-0.1-0.31-0.27-0.58-0.52-0.8
			c-0.23-0.24-0.49-0.42-0.8-0.52c-0.3-0.16-0.62-0.23-0.96-0.22c-0.22,0.03-0.44,0.06-0.66,0.09c-0.42,0.12-0.79,0.33-1.1,0.64
			c-0.13,0.17-0.26,0.34-0.39,0.51C144.42,193.66,144.31,194.08,144.31,194.53L144.31,194.53z"/>
	</g>
</g>
<g>
	<g>
		<path class="st2" d="M124.09,43.08c-0.5-0.06-0.32-0.06,0.06,0.15c0.23,0.13,0.45,0.25,0.69,0.37c0.52,0.25,1.05,0.47,1.59,0.68
			c0.92,0.36,1.88,0.62,2.82,0.91c0.92,0.28,1.79,0.54,2.57,0.96c0.82,0.44,1.41,1.02,2.08,1.68c1.5,1.48,3.15,2.91,4.46,4.57
			c1.3,1.66,1.95,3.74,2.74,5.67c1.52-0.64,3.05-1.28,4.57-1.93c-0.49-0.68-0.74-1.47-1.16-2.19c-0.37-0.63-0.94-1.13-1.22-1.81
			c-0.4-0.95-0.67-1.79-1.39-2.57c-0.69-0.74-1.49-1.17-2.42-1.53c-2.38-0.94-4.15,2.55-2.43,4.18c0.32,0.3,0.45,0.55,0.55,0.95
			c1.52-0.64,3.05-1.28,4.57-1.93c-0.43-0.64-0.87-1.31-1.44-1.83c-0.34-0.31-0.74-0.65-1.17-0.83c-0.07-0.04-0.14-0.07-0.21-0.11
			c0.63,0.95,0.73,1,0.31,0.14c-0.68-1.41-2.14-2.07-3.25-3.08c-0.64-0.59-1.33-1.11-2.1-1.5c-0.52-0.26-1.26-0.64-1.58-0.88
			c-1.31-1-2.38-2.02-3.99-2.52c-1.29-0.4-2.73,0.47-3.08,1.75c-0.37,1.34,0.45,2.67,1.75,3.08c0.27,0.08,0.74,0.38,0.99,0.58
			c0.55,0.44,1.08,0.9,1.64,1.32c1,0.73,2.16,1.1,3.07,1.95c0.55,0.51,1.12,1,1.76,1.41c0.01,0,0.58,0.41,0.42,0.25
			c-0.05-0.05-0.09-0.11-0.11-0.18c0.08,0.2,0.17,0.4,0.25,0.6c0.38,0.7,0.93,1.11,1.59,1.52c0.37,0.22,0.51,0.4,0.81,0.87
			c1.54,2.33,5.28,0.9,4.57-1.93c-0.3-1.21-0.93-2.29-1.84-3.15c-0.81,1.39-1.62,2.79-2.43,4.18c-0.31-0.12,0.2,0.29,0.03,0.05
			c0.27,0.38,0.06-0.05,0.24,0.35c0.3,0.68,0.46,1.38,0.9,2.01c0.39,0.56,0.79,1,1.1,1.61c0.3,0.61,0.54,1.22,0.95,1.78
			c0.73,1.01,1.91,1.55,3.12,1.02c1.03-0.45,1.93-1.78,1.45-2.95c-1-2.43-1.83-5.01-3.43-7.12c-1.55-2.04-3.46-3.78-5.29-5.56
			c-1.83-1.79-3.88-2.84-6.32-3.59c-1.09-0.34-2.22-0.6-3.26-1.05c-1.12-0.48-2.16-1.18-3.52-1.33c-1.34-0.15-2.5,1.25-2.5,2.5
			C121.59,42.06,122.74,42.94,124.09,43.08L124.09,43.08z"/>
	</g>
</g>
<g>
	<g>
		<path class="st2" d="M140.73,54.54c0.15,0.17,0.12,1.15,0.15,1.37c0.14,1.09,0.49,1.91,0.95,2.91c0.68,1.48,0.99,3.18,1.38,4.76
			c0.43,1.72,0.82,3.45,1.17,5.19c0.33,1.65,0.91,3.5,0.76,5.19c-0.12,1.35,1.24,2.5,2.5,2.5c1.45,0,2.38-1.15,2.5-2.5
			c0.18-1.99-0.47-4.17-0.86-6.12c-0.4-2.01-0.85-4-1.35-5.99c-0.23-0.93-0.48-1.85-0.73-2.77c-0.31-1.09-0.79-2.07-1.21-3.11
			c-0.25-0.63-0.22-1.35-0.33-2.05c-0.18-1.13-0.63-2.05-1.38-2.91c-0.89-1.02-2.63-0.91-3.54,0
			C139.72,52.02,139.84,53.52,140.73,54.54L140.73,54.54z"/>
	</g>
</g>
<g>
	<g>
		<path class="st2" d="M144.73,73.3c0.05,0.3,0.05,0.31,0.01,0.03c0.02,0.15,0.03,0.31,0.05,0.46c0.03,0.31,0.04,0.62,0.05,0.93
			c0.02,0.58,0,1.17-0.02,1.75c-0.02,0.58-0.06,1.17-0.1,1.75c-0.01,0.14-0.02,0.27-0.03,0.41c-0.03,0.29-0.03,0.27,0.01-0.05
			c0.02,0.16-0.33,0.9-0.07,0.37c1.52,0.64,3.05,1.28,4.57,1.93c0.22-1.52,0.22-2.96-0.19-4.45c-0.28-1.02-1.32-1.88-2.41-1.84
			c-1.04,0.05-2.2,0.73-2.41,1.84c-0.26,1.34-0.5,2.69-0.78,4.03c-0.12,0.56-0.25,1.11-0.43,1.65c-0.09,0.27-0.06,0.36,0,0.05
			c-0.02,0.12-0.12,0.25-0.17,0.36c-0.07,0.15-0.16,0.29-0.24,0.43c-0.07,0.1-0.35,0.47-0.01,0.05c-0.82,1.02-1.07,2.55,0,3.54
			c0.91,0.83,2.66,1.09,3.54,0c1.04-1.29,1.69-2.73,2.06-4.35c0.33-1.46,0.58-2.95,0.86-4.42c-1.61,0-3.21,0-4.82,0
			c0.06,0.22,0.11,0.43,0.16,0.66c0.14,0.67,0.01-0.46,0.02,0.23c0.01,0.23,0.02,0.45,0.01,0.67c0,0.12-0.08,0.78,0,0.23
			c-0.18,1.25,0.21,2.43,1.45,2.95c1.07,0.45,2.57,0.1,3.12-1.02c0.74-1.5,0.78-3.13,0.86-4.76c0.08-1.59,0-3.15-0.26-4.72
			c-0.21-1.29-1.88-2.13-3.08-1.75C145.08,70.68,144.5,71.92,144.73,73.3L144.73,73.3z"/>
	</g>
</g>
<g>
	<g>
		<path class="st2" d="M141.72,84.59c-0.06,0.68,0.1-0.2-0.03,0.15c-0.06,0.18-0.09,0.39-0.14,0.57c0-0.01-0.22,0.61-0.12,0.37
			c0.11-0.26-0.15,0.29-0.18,0.34c-0.1,0.17-0.2,0.34-0.31,0.5c-0.08,0.12-0.32,0.43-0.1,0.15c-0.32,0.42-0.67,0.82-0.96,1.26
			c-0.24,0.37-0.41,0.76-0.62,1.15c-0.1,0.19-0.21,0.37-0.33,0.55c-0.24,0.36,0.36-0.39-0.14,0.19c-0.52,0.61-1.07,1.26-1.7,1.75
			c0.21-0.16,0.07-0.06-0.07,0.02c-0.2,0.12-0.4,0.25-0.59,0.39c-0.4,0.27-0.79,0.57-1.14,0.9c-0.56,0.52-1.02,1.16-1.47,1.77
			c-0.2,0.26-0.39,0.53-0.58,0.8c-0.1,0.13-0.19,0.26-0.29,0.39c0.34-0.44,0.04-0.07-0.03,0.02c-0.21,0.24-0.46,0.44-0.67,0.68
			c-0.17,0.19,0.37-0.19-0.02,0c-0.17,0.09-0.33,0.19-0.5,0.27c-1.19,0.56-1.58,2.36-0.9,3.42c0.79,1.22,2.15,1.49,3.42,0.9
			c1.58-0.74,2.6-2.19,3.6-3.56c0.12-0.16,0.23-0.32,0.35-0.48c-0.2,0.27-0.13,0.16,0.04-0.04c0.23-0.28,0.48-0.53,0.74-0.77
			c0.32-0.3-0.2,0.09,0.08-0.06c0.21-0.1,0.4-0.26,0.59-0.39c0.47-0.32,0.93-0.67,1.34-1.06c0.75-0.71,1.44-1.5,2.05-2.33
			c0.26-0.35,0.47-0.71,0.66-1.1c0.12-0.24,0.23-0.48,0.37-0.71c0.05-0.08,0.43-0.63,0.16-0.26c0.58-0.79,1.2-1.49,1.6-2.38
			c0.51-1.12,0.77-2.2,0.89-3.42c0.12-1.31-1.24-2.56-2.5-2.5C142.76,82.16,141.85,83.19,141.72,84.59L141.72,84.59z"/>
	</g>
</g>
<g>
	<g>
		<path class="st2" d="M130.05,98.27c-0.03,0.03-0.07,0.05-0.1,0.08c0.17-0.13,0.34-0.26,0.51-0.39c-1.11,0.86-2.28,1.65-3.43,2.47
			c-0.58,0.41-1.16,0.83-1.74,1.24c-0.57,0.41-1.14,0.83-1.77,1.14c-0.54,0.27-0.99,0.93-1.15,1.49c-0.16,0.6-0.09,1.4,0.25,1.93
			c0.78,1.2,2.16,1.52,3.42,0.9c0.63-0.31,1.2-0.73,1.77-1.14c0.62-0.44,1.23-0.88,1.85-1.32c1.32-0.94,2.65-1.86,3.92-2.86
			c0.47-0.37,0.73-1.2,0.73-1.77c0-0.61-0.27-1.35-0.73-1.77c-0.48-0.44-1.1-0.76-1.77-0.73c-0.22,0.03-0.44,0.06-0.66,0.09
			C130.73,97.74,130.36,97.96,130.05,98.27L130.05,98.27z"/>
	</g>
</g>
</svg>
