<?xml version="1.0" encoding="utf-8"?>
<!-- Generator: Adobe Illustrator 24.2.3, SVG Export Plug-In . SVG Version: 6.00 Build 0)  -->
<svg version="1.1" id="Слой_1" xmlns="http://www.w3.org/2000/svg" xmlns:xlink="http://www.w3.org/1999/xlink" x="0px" y="0px"
	 viewBox="0 0 546.13 114.14" style="enable-background:new 0 0 546.13 114.14;" xml:space="preserve">
<style type="text/css">
	.st0{fill:#2A4B9B;stroke:#2A4B9B;stroke-miterlimit:10;}
	.st1{fill:#FFFFFF;stroke:#FFFFFF;stroke-miterlimit:10;}
	.st2{fill:#F6F6F6;}
	.st3{fill:#2A4B9B;}
	.st4{fill:#B8D7A2;}
	.st5{fill:#73BA69;}
</style>
<rect class="st0" width="546.13" height="114.14"/>
<rect x="6.1" y="5.25" class="st1" width="108.43" height="103.63"/>
<g>
	<g>
		<path class="st2" d="M163.71,35.93h6.44v34.16h-6.44V35.93z M166.53,63.89h10.9c1.47,0,2.61-0.36,3.42-1.07
			c0.81-0.71,1.21-1.71,1.21-3v-0.07c0-0.86-0.18-1.6-0.54-2.21c-0.36-0.61-0.89-1.08-1.59-1.4c-0.7-0.32-1.53-0.48-2.5-0.48h-10.9
			v-6.2h10.9c1.33,0,2.36-0.34,3.09-1.01c0.73-0.67,1.09-1.62,1.09-2.84c0-1.1-0.36-1.95-1.09-2.56c-0.73-0.61-1.76-0.92-3.09-0.92
			h-10.9v-6.2h11.11c2.21,0,4.1,0.36,5.66,1.09c1.57,0.73,2.76,1.79,3.57,3.17c0.81,1.39,1.22,3.05,1.22,4.99
			c0,1.33-0.26,2.51-0.79,3.54c-0.52,1.03-1.29,1.87-2.29,2.53c-1,0.66-2.21,1.1-3.62,1.34c1.5,0.2,2.79,0.66,3.86,1.37
			s1.89,1.64,2.44,2.78c0.56,1.14,0.83,2.47,0.83,3.97v0.07c0,1.96-0.41,3.63-1.23,5.03c-0.82,1.39-2.02,2.46-3.59,3.18
			c-1.57,0.73-3.47,1.09-5.67,1.09h-11.51V63.89z"/>
		<path class="st2" d="M200.97,70.09h-6.67V35.93h6.67V70.09z"/>
		<path class="st2" d="M208.02,35.93h6.44v34.16h-6.44V35.93z M211,50.05h19.9v6.2H211V50.05z M226.72,35.93h6.44v34.16h-6.44V35.93
			z"/>
		<path class="st2" d="M262.17,35.93h8.48v34.16h-5.85V43.57l0.23,1.5l-6.53,21.21h-5.69l-6.53-20.74l0.24-1.97v26.52h-5.85V35.93
			h8.48l6.51,23.02L262.17,35.93z"/>
		<path class="st2" d="M278.17,35.93h6.44v34.16h-6.44V35.93z M280.49,35.93h20.56v6.2h-20.56V35.93z M280.49,50.03h17.97v6.2
			h-17.97V50.03z M280.49,63.89h20.56v6.2h-20.56V63.89z"/>
		<path class="st2" d="M306.92,35.93h6.44v34.16h-6.44V35.93z M309.25,35.93h17.76v6.2h-17.76V35.93z"/>
		<path class="st2" d="M340.54,35.93h4.09l13.06,34.16h-6.93l-8.18-23.33l-8.17,23.33h-6.93L340.54,35.93z M333.75,58.41h17.97v6.2
			h-17.97V58.41z"/>
		<path class="st2" d="M361.92,35.93h6.44v34.16h-6.44V35.93z M364.9,35.93h19.9v6.2h-19.9V35.93z M380.62,35.93h6.44v34.16h-6.44
			V35.93z"/>
		<path class="st2" d="M399.8,68.88c-1.89-1.04-3.35-2.51-4.38-4.42c-1.03-1.9-1.55-4.11-1.55-6.61v-9.68
			c0-2.51,0.52-4.71,1.55-6.61c1.03-1.9,2.49-3.38,4.38-4.42c1.89-1.04,4.07-1.56,6.54-1.56s4.66,0.52,6.54,1.56
			c1.89,1.04,3.35,2.51,4.38,4.42c1.03,1.9,1.55,4.11,1.55,6.61v9.68c0,2.51-0.52,4.71-1.55,6.61c-1.03,1.9-2.49,3.38-4.38,4.42
			c-1.89,1.04-4.07,1.56-6.54,1.56S401.68,69.92,399.8,68.88z M409.39,63.26c0.88-0.49,1.55-1.19,2.03-2.1
			c0.48-0.91,0.72-1.96,0.72-3.15V48.01c0-1.19-0.24-2.24-0.72-3.15c-0.48-0.91-1.15-1.61-2.03-2.1c-0.88-0.49-1.9-0.74-3.05-0.74
			s-2.18,0.25-3.05,0.74c-0.88,0.49-1.55,1.19-2.03,2.1c-0.48,0.91-0.72,1.96-0.72,3.15v10.01c0,1.19,0.24,2.24,0.72,3.15
			c0.48,0.91,1.16,1.61,2.03,2.1c0.88,0.49,1.89,0.74,3.05,0.74S408.52,63.76,409.39,63.26z"/>
		<path class="st2" d="M424.22,63.89c1.13,0,2.09-0.29,2.9-0.88c0.81-0.59,1.42-1.44,1.84-2.56s0.63-2.47,0.63-4.05V35.93h6.44
			v21.12c0,2.76-0.44,5.11-1.33,7.06c-0.88,1.95-2.18,3.43-3.88,4.45c-1.7,1.02-3.75,1.53-6.14,1.53h-0.47V63.89z M433.05,35.93
			h15.67v6.2h-15.67V35.93z M446.18,35.93h6.44v34.16h-6.44V35.93z"/>
		<path class="st2" d="M466.34,70.09h-6.67V35.93h6.67V70.09z"/>
		<path class="st2" d="M478.37,68.95c-1.85-0.99-3.26-2.44-4.23-4.35c-0.97-1.9-1.46-4.2-1.46-6.9v-9.37c0-2.69,0.49-4.99,1.46-6.9
			c0.97-1.9,2.38-3.36,4.23-4.36c1.85-1,4.07-1.5,6.67-1.5c2.15,0,4.06,0.46,5.76,1.39c1.69,0.92,3.09,2.27,4.19,4.03
			c1.1,1.76,1.87,3.89,2.29,6.38h-6.67c-0.25-1.13-0.64-2.09-1.16-2.89c-0.53-0.8-1.16-1.41-1.9-1.83s-1.58-0.63-2.5-0.63
			c-1.21,0-2.23,0.25-3.08,0.74c-0.85,0.49-1.49,1.21-1.94,2.16c-0.45,0.95-0.67,2.09-0.67,3.42v9.37c0,1.33,0.22,2.47,0.67,3.41
			c0.45,0.94,1.09,1.66,1.94,2.15c0.85,0.49,1.87,0.74,3.08,0.74c0.94,0,1.79-0.21,2.54-0.62s1.39-1.02,1.9-1.82
			c0.52-0.8,0.89-1.77,1.13-2.91h6.67c-0.44,2.49-1.21,4.62-2.31,6.38c-1.1,1.76-2.5,3.1-4.18,4.03c-1.68,0.92-3.6,1.39-5.74,1.39
			C482.44,70.44,480.22,69.94,478.37,68.95z"/>
	</g>
</g>
<path class="st3" d="M14.25,59.47c0,24.54,0-28.15,0-28.15l55.13-20.93v48.35L14.25,78.95V59.47z"/>
<path class="st4" d="M33.4,72.27c0,24.54,0-28.15,0-28.15L88.53,23.2v48.35L33.4,91.76V72.27z"/>
<path class="st5" d="M48.43,84.26c0,24.54,0-28.15,0-28.15l55.13-20.93v48.35l-55.13,20.21V84.26z"/>
<g>
	<g>
	</g>
</g>
</svg>
